# xmcd
#
# Track frame offsets:
#	150
#	23610
#	40577
#	58959
#	77669
#	98881
#	119471
#	139073
#	157663
#	180960
#	197904
#	216182
#	236517
#	257132
#	276637
#	294247
#	307630
#
# Disc length: 4336 seconds
#
# Revision: 1
# Processed by: cddbd v1.5.2PL0 Copyright (c) Steve Scherf et al.
# Submitted via: EasyCDDAExtractor 16.0.9.1
#
DISCID=e410ee11
DTITLE=Sergio Dalma - Lo mejor de Sergio Dalma 1984-2004
DYEAR=2004
DGENRE=Pop
TTITLE0=Mi historia entre tus dedos
TTITLE1=Galilea
TTITLE2=Esa chica es mía
TTITLE3=En mi selva
TTITLE4=Bailar pegados
TTITLE5=Ya lo verás
TTITLE6=Fuego en eL alma
TTITLE7=Déjame olvidarte
TTITLE8=Nueva vida
TTITLE9=No me digas que no
TTITLE10=No despertaré
TTITLE11=Naufragos
TTITLE12=Una historia distinta
TTITLE13=Ave Lucía
TTITLE14=Castigado por pensar en ti
TTITLE15=Soy tremendo
TTITLE16=Bailar pegados (versión reggae)
EXTD=
EXTT0=
EXTT1=
EXTT2=
EXTT3=
EXTT4=
EXTT5=
EXTT6=
EXTT7=
EXTT8=
EXTT9=
EXTT10=
EXTT11=
EXTT12=
EXTT13=
EXTT14=
EXTT15=
EXTT16=
PLAYORDER=
